<svg width="37" height="37" viewBox="0 0 37 37" fill="none" xmlns="http://www.w3.org/2000/svg">
<g clip-path="url(#clip0_1_3260)">
<path d="M3.12815 2.04022C2.73027 2.44632 2.5 3.07858 2.5 3.89738V33.1035C2.5 33.9223 2.73027 34.5546 3.12815 34.9607L3.22636 35.0498L20.0121 18.6903V18.304L3.22636 1.94447L3.12815 2.04022Z" fill="#363771"/>
<path d="M27.633 24.1465L22.0439 18.6906V18.3043L27.6398 12.8483L27.7651 12.9193L34.392 16.5957C36.2832 17.639 36.2832 19.3558 34.392 20.4058L27.7651 24.0755L27.633 24.1465Z" fill="#363771"/>
<path d="M26.7486 25.0912L21.0275 19.5131L4.14355 35.9766C4.77171 36.6204 5.79606 36.698 6.96094 36.0542L26.7486 25.0912Z" fill="#363771"/>
<path d="M26.7486 11.9034L6.96094 0.940338C5.79606 0.303125 4.77171 0.380712 4.14355 1.02453L21.0275 17.4814L26.7486 11.9034Z" fill="#363771"/>
</g>
<defs>
<clipPath id="clip0_1_3260">
<rect width="28.8" height="28.8" fill="white" transform="matrix(1.25 0 0 -1.25 0.5 36.5)"/>
</clipPath>
</defs>
</svg>
