<svg width="17" height="16" viewBox="0 0 17 16" fill="none" xmlns="http://www.w3.org/2000/svg">
<path d="M8.93038 1.18378C8.65814 1.05398 8.34187 1.05398 8.06963 1.18378C7.83429 1.29599 7.70453 1.49081 7.63909 1.59769C7.57145 1.70818 7.502 1.84894 7.43432 1.98613L5.99716 4.89765L2.78246 5.36753C2.63114 5.38961 2.47586 5.41228 2.34992 5.44256C2.22808 5.47186 2.00281 5.53523 1.82353 5.72445C1.61614 5.94337 1.5186 6.24418 1.55808 6.54313C1.59221 6.80155 1.73744 6.98505 1.81891 7.08027C1.90312 7.1787 2.01555 7.28817 2.12513 7.39485L4.45032 9.65958L3.90168 12.8584C3.87578 13.0093 3.84921 13.164 3.83898 13.2932C3.82909 13.4181 3.81953 13.6521 3.94399 13.8812C4.08796 14.1463 4.34388 14.3322 4.64046 14.3871C4.89687 14.4347 5.11639 14.3533 5.23215 14.3052C5.35184 14.2556 5.49079 14.1825 5.62623 14.1112L8.50001 12.5999L11.3738 14.1112C11.5092 14.1825 11.6482 14.2556 11.7679 14.3052C11.8836 14.3533 12.1031 14.4347 12.3595 14.3871C12.6561 14.3322 12.912 14.1463 13.056 13.8812C13.1805 13.6521 13.1709 13.4181 13.161 13.2932C13.1508 13.164 13.1242 13.0093 13.0983 12.8585L12.5497 9.65958L14.8749 7.39482C14.9845 7.28815 15.0969 7.17869 15.1811 7.08027C15.2626 6.98505 15.4078 6.80155 15.4419 6.54313C15.4814 6.24418 15.3839 5.94337 15.1765 5.72445C14.9972 5.53523 14.7719 5.47186 14.6501 5.44256C14.5241 5.41228 14.3689 5.38961 14.2175 5.36753L11.0028 4.89765L9.56572 1.98618C9.49803 1.84898 9.42857 1.70819 9.36092 1.59769C9.29548 1.49081 9.16572 1.29599 8.93038 1.18378Z" fill="#FD9B7E"/>
</svg>
