<svg width="17" height="16" viewBox="0 0 17 16" fill="none" xmlns="http://www.w3.org/2000/svg">
<path d="M8.93038 1.18378C8.65814 1.05398 8.34187 1.05398 8.06963 1.18378C7.83429 1.29599 7.70453 1.49081 7.63909 1.59769C7.57145 1.70818 7.502 1.84894 7.43432 1.98613L5.99717 4.89765L2.78246 5.36753C2.63114 5.38961 2.47586 5.41228 2.34992 5.44256C2.22808 5.47186 2.00281 5.53523 1.82353 5.72445C1.61614 5.94337 1.5186 6.24417 1.55808 6.54313C1.59221 6.80155 1.73744 6.98505 1.81891 7.08027C1.90312 7.1787 2.01555 7.28816 2.12513 7.39485L4.45032 9.65958L3.90168 12.8584C3.87578 13.0093 3.84921 13.164 3.83898 13.2932C3.82909 13.4181 3.81953 13.6521 3.94399 13.8812C4.08796 14.1463 4.34388 14.3322 4.64046 14.3871C4.89687 14.4347 5.11639 14.3533 5.23215 14.3052C5.35185 14.2556 5.49079 14.1825 5.62623 14.1112L8.50001 12.5999L11.3738 14.1112C11.5092 14.1825 11.6482 14.2556 11.7679 14.3052C11.8836 14.3533 12.1031 14.4347 12.3596 14.3871C12.6561 14.3322 12.9121 14.1463 13.056 13.8812C13.1805 13.6521 13.1709 13.4181 13.161 13.2932C13.1508 13.164 13.1242 13.0093 13.0983 12.8585L12.5497 9.65958L14.8749 7.39482C14.9845 7.28815 15.0969 7.17869 15.1811 7.08027C15.2626 6.98505 15.4078 6.80155 15.4419 6.54313C15.4814 6.24417 15.3839 5.94337 15.1765 5.72445C14.9972 5.53523 14.7719 5.47186 14.6501 5.44256C14.5241 5.41228 14.3689 5.38961 14.2175 5.36752L11.0028 4.89765L9.56572 1.98618C9.49803 1.84898 9.42857 1.70819 9.36092 1.59769C9.29548 1.49081 9.16573 1.29599 8.93038 1.18378Z" fill="#E1E0EB"/>
<path fill-rule="evenodd" clip-rule="evenodd" d="M8.06966 1.18378C8.20578 1.11888 8.35291 1.08643 8.50004 1.08643V12.5999L5.62626 14.1112C5.49082 14.1825 5.35188 14.2556 5.23218 14.3052C5.11642 14.3533 4.8969 14.4347 4.64049 14.3871C4.34391 14.3322 4.08799 14.1463 3.94402 13.8812C3.81956 13.6521 3.82912 13.4181 3.83901 13.2932C3.84924 13.164 3.87581 13.0093 3.90171 12.8584L4.45036 9.65958L2.12516 7.39485C2.01558 7.28816 1.90315 7.1787 1.81894 7.08027C1.73747 6.98505 1.59224 6.80155 1.55811 6.54313C1.51863 6.24417 1.61617 5.94337 1.82356 5.72445C2.00284 5.53523 2.22811 5.47186 2.34995 5.44256C2.47589 5.41228 2.63117 5.38961 2.78249 5.36753L5.9972 4.89765L7.43435 1.98613C7.50204 1.84894 7.57148 1.70818 7.63912 1.59769C7.70456 1.49081 7.83432 1.29599 8.06966 1.18378Z" fill="#FD9B7E"/>
</svg>
