<svg width="36" height="37" viewBox="0 0 36 37" fill="none" xmlns="http://www.w3.org/2000/svg">
<g clip-path="url(#clip0_2005_2459)">
<path d="M28.4657 19.6447C28.4237 15.0967 32.2851 12.884 32.4617 12.781C30.2748 9.67231 26.8852 9.24756 25.6941 9.2137C22.8472 8.92159 20.0858 10.8746 18.6356 10.8746C17.1564 10.8746 14.9232 9.24192 12.5163 9.2899C9.41909 9.33646 6.52159 11.0848 4.93244 13.7999C1.65284 19.3357 4.09879 27.4708 7.2409 31.9455C8.81267 34.137 10.6493 36.5839 13.0533 36.4978C15.4052 36.4032 16.2837 35.0359 19.1218 35.0359C21.934 35.0359 22.7589 36.4978 25.2107 36.4428C27.7348 36.4032 29.3239 34.2414 30.8407 32.0302C32.6571 29.5184 33.3865 27.0447 33.4155 26.9177C33.3561 26.8979 28.5134 25.0959 28.4657 19.6447Z" fill="#363771"/>
<path d="M23.8343 6.27009C25.0992 4.72773 25.9647 2.62939 25.7245 0.5C23.8936 0.579023 21.604 1.73473 20.2855 3.24323C19.119 4.57251 18.0769 6.75128 18.3461 8.80024C20.4027 8.94982 22.5143 7.78846 23.8343 6.27009Z" fill="#363771"/>
</g>
<defs>
<clipPath id="clip0_2005_2459">
<rect width="36" height="36" fill="white" transform="translate(0 0.5)"/>
</clipPath>
</defs>
</svg>
