<svg xmlns="http://www.w3.org/2000/svg" width="164" height="32" fill="none"><path fill="#363771" d="M5.872 10.728c.505.733 1.33 1.742 2.569 2.98 2.248 2.338 3.807 4.4 4.587 6.189.597 1.375.918 3.026.918 4.905 0 1.88-.596 3.439-1.743 4.768-1.33 1.467-3.166 2.2-5.551 2.2-1.927 0-3.487-.733-4.633-2.2C.918 28.195.32 26.407.275 24.206H4.45c0 1.055.23 1.88.734 2.568.505.687 1.1 1.008 1.88 1.008 1.744 0 2.661-1.1 2.661-3.255 0-1.467-.32-2.842-1.009-4.08-.55-.963-1.422-2.109-2.706-3.393C2.34 13.387.505 9.948.505 6.694c0-1.88.504-3.393 1.468-4.54C3.12.826 4.909.185 7.248.185c2.11 0 3.762.733 4.909 2.2 1.009 1.192 1.56 2.75 1.697 4.676H9.91C9.725 5.09 8.808 4.08 7.157 4.08c-1.79 0-2.707.917-2.707 2.705 0 1.238.459 2.567 1.422 3.943ZM25.69.367l6.468 31.129h-4.083l-1.88-8.528h-4.45l-1.973 8.528h-4.129L22.295.366h3.395Zm-1.698 11.14-1.238 7.198h2.615l-1.377-7.198ZM39.268 13.066v18.43h-3.99V.457h3.99l5.688 17.559V.458h3.992v31.083h-3.992l-5.688-18.475ZM63.26 6.968c-.091-.275-.229-.733-.412-1.375-.459-1.1-1.239-1.696-2.248-1.696-1.33 0-2.248 1.146-2.615 2.659-.413 1.834-1.238 11.186-.092 18.246.367 2.384 1.606 2.934 2.753 2.934 1.239 0 2.064-.412 2.431-1.238.275-.687.459-1.513.597-2.384h4.266c-.23 1.697-.55 3.118-1.055 4.172-1.055 2.247-3.12 3.393-6.147 3.393-2.982 0-5.964-1.742-6.744-5.272-1.789-8.023-1.193-17.146.046-21.548.826-2.888 2.982-4.86 6.652-4.813 2.982.046 4.954 1.146 6.055 3.484.459 1.146.734 2.292.918 3.393H63.26v.045ZM77.894 31.496H73.72V3.988h-4.725V.367H82.16v3.621h-4.266v27.508ZM92.024 31.77c-2.523 0-4.404-.962-5.643-2.933-.826-1.238-1.192-3.576-1.192-6.969V.321h3.99v23.61c0 2.522.964 3.805 2.845 3.851 1.743 0 2.614-1.284 2.614-3.85V.366h3.992v21.41c0 3.438-.413 5.822-1.239 7.06-.826 1.146-1.651 1.925-2.431 2.338-.734.412-1.743.596-2.936.596ZM110.833.367l6.468 31.129h-4.083l-1.881-8.528h-4.45l-1.972 8.528h-4.129l6.606-31.13h3.441Zm-1.698 11.14-1.238 7.198h2.614l-1.376-7.198ZM130.741 16.137l3.67 15.45h-4.037l-3.486-14.624h-2.432l.046 14.533h-4.037V.366h6.836c1.468 0 2.752.367 3.945 1.055 2.018 1.467 3.027 3.943 3.027 7.473 0 1.696-.367 3.21-1.055 4.539-.55 1.1-1.192 1.88-1.972 2.338-.138.091-.321.229-.505.366Zm-6.285-2.796h2.523c1.973 0 2.982-1.559 2.982-4.676 0-3.118-1.009-4.722-2.982-4.722h-2.523v9.398ZM146.109 31.496h-4.128V17.742L135.65.321h4.266l4.083 11.736 4.175-11.69h4.312l-6.377 17.33v13.799Z"/></svg>