<?xml version="1.0" encoding="utf-8"?>
<!-- Generator: Adobe Illustrator 22.1.0, SVG Export Plug-In . SVG Version: 6.00 Build 0)  -->
<svg version="1.1" xmlns="http://www.w3.org/2000/svg" xmlns:xlink="http://www.w3.org/1999/xlink" x="0px" y="0px"
	 viewBox="0 0 357.5 69.8" style="enable-background:new 0 0 357.5 69.8;" xml:space="preserve">
<style type="text/css">
	.st0{fill:#FFFFFF;}
	.st1{display:none;}
	.st2{display:inline;fill:#BE509E;}
</style>
<g id="Layer_1">
	<g>
		<g>
			<g>
				<path class="st0" d="M12.8,23.4c1.1,1.6,2.9,3.8,5.6,6.5c4.9,5.1,8.3,9.6,10,13.5c1.3,3,2,6.6,2,10.7c0,4.1-1.3,7.5-3.8,10.4
					c-2.9,3.2-6.9,4.8-12.1,4.8c-4.2,0-7.6-1.6-10.1-4.8c-2.4-3-3.7-6.9-3.8-11.7h9.1c0,2.3,0.5,4.1,1.6,5.6
					c1.1,1.5,2.4,2.2,4.1,2.2c3.8,0,5.8-2.4,5.8-7.1c0-3.2-0.7-6.2-2.2-8.9c-1.2-2.1-3.1-4.6-5.9-7.4c-8-8-12-15.5-12-22.6
					c0-4.1,1.1-7.4,3.2-9.9c2.5-2.9,6.4-4.3,11.5-4.3c4.6,0,8.2,1.6,10.7,4.8c2.2,2.6,3.4,6,3.7,10.2h-8.6c-0.4-4.3-2.4-6.5-6-6.5
					c-3.9,0-5.9,2-5.9,5.9C9.7,17.5,10.7,20.4,12.8,23.4z"/>
				<path class="st0" d="M56,0.8l14.1,67.9h-8.9l-4.1-18.6h-9.7l-4.3,18.6h-9L48.6,0.8H56z M52.3,25.1l-2.7,15.7h5.7L52.3,25.1z"/>
				<path class="st0" d="M85.6,28.5v40.2h-8.7V1h8.7l12.4,38.3V1h8.7v67.8h-8.7L85.6,28.5z"/>
				<path class="st0" d="M137.9,15.2c-0.2-0.6-0.5-1.6-0.9-3c-1-2.4-2.7-3.7-4.9-3.7c-2.9,0-4.9,2.5-5.7,5.8
					c-0.9,4-2.7,24.4-0.2,39.8c0.8,5.2,3.5,6.4,6,6.4c2.7,0,4.5-0.9,5.3-2.7c0.6-1.5,1-3.3,1.3-5.2h9.3c-0.5,3.7-1.2,6.8-2.3,9.1
					c-2.3,4.9-6.8,7.4-13.4,7.4c-6.5,0-13-3.8-14.7-11.5c-3.9-17.5-2.6-37.4,0.1-47c1.8-6.3,6.5-10.6,14.5-10.5
					c6.5,0.1,10.8,2.5,13.2,7.6c1,2.5,1.6,5,2,7.4H137.9z"/>
				<path class="st0" d="M169.8,68.7h-9.1v-60h-10.3V0.8h28.7v7.9h-9.3V68.7z"/>
				<path class="st0" d="M200.6,69.3c-5.5,0-9.6-2.1-12.3-6.4c-1.8-2.7-2.6-7.8-2.6-15.2v-47h8.7v51.5c0,5.5,2.1,8.3,6.2,8.4
					c3.8,0,5.7-2.8,5.7-8.4V0.8h8.7v46.7c0,7.5-0.9,12.7-2.7,15.4c-1.8,2.5-3.6,4.2-5.3,5.1C205.4,68.9,203.2,69.3,200.6,69.3z"/>
				<path class="st0" d="M241.6,0.8l14.1,67.9h-8.9l-4.1-18.6H233l-4.3,18.6h-9l14.4-67.9H241.6z M237.9,25.1l-2.7,15.7h5.7
					L237.9,25.1z"/>
				<path class="st0" d="M285,35.2l8,33.7h-8.8L276.6,37h-5.3l0.1,31.7h-8.8V0.8h14.9c3.2,0,6,0.8,8.6,2.3c4.4,3.2,6.6,8.6,6.6,16.3
					c0,3.7-0.8,7-2.3,9.9c-1.2,2.4-2.6,4.1-4.3,5.1C285.8,34.6,285.4,34.9,285,35.2z M271.3,29.1h5.5c4.3,0,6.5-3.4,6.5-10.2
					c0-6.8-2.2-10.3-6.5-10.3h-5.5V29.1z"/>
				<path class="st0" d="M318.5,68.7h-9v-30l-13.8-38h9.3l8.9,25.6L323,0.8h9.4l-13.9,37.8V68.7z"/>
			</g>
		</g>
		<g>
			<path class="st0" d="M344,2.3h-3.3v8.8h-1.5V2.3h-3.4V0.9h8.1V2.3z M357,11.1h-1.5V2.6h-0.1l-3.4,8.5h-1l-3.4-8.5h0v8.5h-1.5V0.9
				h2.3l3.2,7.8l3.2-7.8h2.2V11.1z"/>
		</g>
	</g>
</g>
<g id="Layer_2" class="st1">
	<rect x="31.3" y="-15.3" class="st2" width="3.7" height="65.9"/>
	<rect x="70.6" y="-15.3" class="st2" width="3.7" height="65.9"/>
	<rect x="70.6" y="59.9" class="st2" width="6.6" height="10.9"/>
	<rect x="28.3" y="59.9" class="st2" width="6.6" height="10.9"/>
	<rect x="107" y="1.2" class="st2" width="6.6" height="69.5"/>
	<rect x="148.1" y="50.9" class="st2" width="6.6" height="19.8"/>
	<rect x="178.4" y="59.9" class="st2" width="6.6" height="10.9"/>
	<rect x="211.4" y="60.1" class="st2" width="6.6" height="10.9"/>
	<rect x="253.3" y="59.9" class="st2" width="6.6" height="10.9"/>
</g>
</svg>
